<svg width="17" height="20" viewBox="0 0 17 20" fill="none" xmlns="http://www.w3.org/2000/svg">
<path d="M6.5 14H1.5V19M10.5 6H15.5V1M1.08301 7.0034C1.64369 5.61566 2.58244 4.41304 3.79255 3.53223C5.00266 2.65141 6.43686 2.12752 7.92975 2.02051C9.42265 1.9135 10.9147 2.2274 12.2381 2.92661C13.5615 3.62582 14.6612 4.68254 15.4141 5.97612M15.9176 12.9971C15.3569 14.3848 14.4181 15.5874 13.208 16.4682C11.9979 17.3491 10.5652 17.8723 9.07227 17.9793C7.57937 18.0863 6.08606 17.7725 4.7627 17.0732C3.43933 16.374 2.33882 15.3175 1.58594 14.0239" stroke="#E77CCF" stroke-width="2" stroke-linecap="round" stroke-linejoin="round"/>
</svg>
