<svg width="25" height="24" viewBox="0 0 25 24" fill="none" xmlns="http://www.w3.org/2000/svg">
<path d="M9.5 8C9.5 9.65685 10.8431 11 12.5 11C14.1569 11 15.5 9.65685 15.5 8M3.5 16.8002V7.2002C3.5 6.08009 3.5 5.51962 3.71799 5.0918C3.90973 4.71547 4.21547 4.40973 4.5918 4.21799C5.01962 4 5.58009 4 6.7002 4H18.3002C19.4203 4 19.9796 4 20.4074 4.21799C20.7837 4.40973 21.0905 4.71547 21.2822 5.0918C21.5 5.5192 21.5 6.07899 21.5 7.19691V16.8036C21.5 17.9215 21.5 18.4805 21.2822 18.9079C21.0905 19.2842 20.7837 19.5905 20.4074 19.7822C19.98 20 19.421 20 18.3031 20H6.69691C5.57899 20 5.0192 20 4.5918 19.7822C4.21547 19.5905 3.90973 19.2842 3.71799 18.9079C3.5 18.4801 3.5 17.9203 3.5 16.8002Z" stroke="#E77CCF" strokeWidth="2" strokeLinecap="round" strokeLinejoin="round"/>
</svg>
